<svg width="170.000000" height="36.000000" viewBox="0 0 170 36" fill="none" xmlns="http://www.w3.org/2000/svg" xmlns:xlink="http://www.w3.org/1999/xlink">
	<desc>
			Created with Pixso.
	</desc>
	<defs/>
	<path id="go" d="M147.13 17.24L142.93 17.24L142.93 21.84Q142.56 22.01 142.17 22.13Q141.3 22.4 140.36 22.4Q139.09 22.4 138.08 21.89Q137.98 21.84 137.89 21.79Q137.36 21.49 136.95 21.08Q136.52 20.64 136.21 20.08Q136.17 20.01 136.13 19.94Q135.61 18.89 135.61 17.59Q135.61 15.93 136.37 14.78Q136.61 14.42 136.93 14.11Q137.26 13.77 137.65 13.53Q138.8 12.79 140.41 12.79Q141.36 12.79 142.21 13.09Q143.47 13.54 144.49 14.67L147.52 11.93Q147.15 11.5 146.74 11.13Q145.72 10.21 144.39 9.65Q142.52 8.86 140.17 8.86Q137.61 8.86 135.55 9.87Q135.45 9.92 135.35 9.98Q134.03 10.66 133.07 11.68Q132.47 12.31 132.01 13.08Q131.74 13.54 131.53 14.02Q130.81 15.65 130.81 17.59Q130.81 19.54 131.53 21.17Q131.74 21.65 132.01 22.1Q132.5 22.92 133.14 23.59Q134.07 24.55 135.32 25.22Q135.51 25.32 135.71 25.41Q137.67 26.33 140.07 26.33Q140.14 26.33 140.21 26.33Q142.02 26.31 143.82 25.78Q145.69 25.23 147.13 24.2L147.13 17.24ZM154.64 25.37Q156.65 26.33 159.11 26.33Q161.56 26.33 163.55 25.37Q163.72 25.29 163.89 25.2Q165.2 24.51 166.16 23.49Q166.76 22.85 167.23 22.08Q167.56 21.54 167.8 20.96Q168.44 19.41 168.44 17.59Q168.44 15.77 167.8 14.22Q167.56 13.64 167.23 13.1Q166.76 12.33 166.15 11.68Q165.19 10.67 163.89 9.99Q163.71 9.89 163.52 9.8Q161.54 8.86 159.11 8.86Q156.67 8.86 154.68 9.8Q154.5 9.89 154.32 9.99Q153.04 10.67 152.09 11.66Q151.46 12.31 150.98 13.1Q150.65 13.64 150.41 14.22Q149.77 15.77 149.77 17.59Q149.77 19.41 150.41 20.96Q150.65 21.54 150.98 22.08Q151.46 22.86 152.07 23.51Q153.03 24.52 154.32 25.2Q154.48 25.29 154.64 25.37ZM160.85 22.07Q160.05 22.4 159.11 22.4Q158.19 22.4 157.39 22.08Q157.09 21.97 156.8 21.8Q156.44 21.59 156.13 21.31Q155.56 20.81 155.17 20.11Q155.16 20.1 155.16 20.09Q154.57 19 154.57 17.59Q154.57 16.2 155.15 15.12Q155.16 15.1 155.17 15.09Q155.57 14.36 156.16 13.85Q156.46 13.6 156.8 13.4Q157.1 13.22 157.42 13.1Q158.21 12.79 159.11 12.79Q160.03 12.79 160.82 13.11Q161.13 13.23 161.41 13.4Q161.77 13.6 162.07 13.87Q162.65 14.37 163.04 15.09Q163.06 15.12 163.07 15.15Q163.64 16.22 163.64 17.59Q163.64 18.98 163.07 20.05Q163.06 20.08 163.04 20.11Q162.66 20.8 162.1 21.3Q161.78 21.58 161.41 21.8Q161.14 21.96 160.85 22.07Z" fill="#333333" fill-opacity="1.000000" fill-rule="evenodd"/>
	<path id="2" d="M124 18C124 20.87 123.4 23.59 122.33 26L109 26C111.46 22.22 114 17.66 114 13C114 7 109.93 1.95 104.41 0.45C105.56 0.15 106.76 0 108 0C116.83 0 124 8.05 124 18ZM110 13C110 8.02 105.97 4 101 4C94.34 4 92 12.5 92 18C92 27.94 99.16 36 108 36C112.73 36 116.99 33.68 119.92 30L101 30C101.35 29.55 101.72 29.08 102.09 28.61C105.61 24.2 110 18.69 110 13Z" fill="#7859CF" fill-opacity="1.000000" fill-rule="evenodd"/>
	<path id="Drink" d="M10.58 9.2L2.64 9.2L2.64 26L10.58 26Q13.35 26 15.48 24.96Q16.99 24.24 18.01 23.09Q18.45 22.6 18.79 22.04Q18.89 21.88 18.98 21.72Q19.97 19.93 19.97 17.59Q19.97 15.27 18.99 13.49Q18.89 13.32 18.79 13.16Q18.44 12.58 17.99 12.08Q16.97 10.94 15.48 10.23Q13.35 9.2 10.58 9.2ZM27.7 21.53L30.29 21.53L33.34 26L38.43 26L34.8 20.72Q36.08 20.1 36.88 19.1Q37.07 18.86 37.23 18.59Q37.33 18.45 37.41 18.29Q38.09 17.04 38.09 15.41Q38.09 13.76 37.39 12.48Q37.29 12.29 37.18 12.11Q36.99 11.82 36.76 11.56Q35.92 10.55 34.59 9.95Q32.91 9.2 30.62 9.2L22.95 9.2L22.95 26L27.7 26L27.7 21.53ZM45.94 9.2L41.19 9.2L41.19 26L45.94 26L45.94 9.2ZM65.79 26L65.79 9.2L61.13 9.2L61.13 18.15L53.71 9.2L49.8 9.2L49.8 26L54.46 26L54.46 17.04L61.88 26L65.79 26ZM74.33 21.79L76.11 19.9L80.91 26L86.43 26L79.2 16.64L86.06 9.2L80.84 9.2L74.33 16.18L74.33 9.2L69.63 9.2L69.63 26L74.33 26L74.33 21.79ZM32.87 13.95Q33.29 14.53 33.29 15.41Q33.29 16.29 32.88 16.86Q32.74 17.06 32.55 17.22Q31.8 17.86 30.34 17.86L27.7 17.86L27.7 12.94L30.34 12.94Q31.8 12.94 32.55 13.59Q32.73 13.75 32.87 13.95ZM13.38 21.37Q12.17 22.2 10.4 22.2L7.4 22.2L7.4 12.99L10.4 12.99Q12.17 12.99 13.38 13.82Q13.63 14 13.86 14.21Q14.15 14.49 14.38 14.81Q15.17 15.92 15.17 17.59Q15.17 19.28 14.38 20.39Q14.15 20.71 13.86 20.98Q13.63 21.19 13.38 21.37Z" fill="#333333" fill-opacity="1.000000" fill-rule="evenodd"/>
</svg>
